<svg width="129" height="56" viewBox="0 0 129 56" fill="none" xmlns="http://www.w3.org/2000/svg">
<defs>
<filter id="filter0_g_6_26" x="0" y="0" width="128.322" height="39.5103" filterUnits="userSpaceOnUse" color-interpolation-filters="sRGB">
<feFlood flood-opacity="0" result="BackgroundImageFix"/>
<feBlend mode="normal" in="SourceGraphic" in2="BackgroundImageFix" result="shape"/>
<feTurbulence type="fractalNoise" baseFrequency="0.039808914065361023 0.039808914065361023" numOctaves="3" seed="9888" />
<feDisplacementMap in="shape" scale="8" xChannelSelector="R" yChannelSelector="G" result="displacedImage" width="100%" height="100%" />
<feMerge result="effect1_texture_6_26">
<feMergeNode in="displacedImage"/>
</feMerge>
</filter>
<filter id="filter1_g_6_26" x="1.28497" y="19.9725" width="123.956" height="36.0275" filterUnits="userSpaceOnUse" color-interpolation-filters="sRGB">
<feFlood flood-opacity="0" result="BackgroundImageFix"/>
<feBlend mode="normal" in="SourceGraphic" in2="BackgroundImageFix" result="shape"/>
<feTurbulence type="fractalNoise" baseFrequency="0.039808914065361023 0.039808914065361023" numOctaves="3" seed="9888" />
<feDisplacementMap in="shape" scale="8" xChannelSelector="R" yChannelSelector="G" result="displacedImage" width="100%" height="100%" />
<feMerge result="effect1_texture_6_26">
<feMergeNode in="displacedImage"/>
</feMerge>
</filter>
</defs>
<!-- Upper lip -->
<g filter="url(#filter0_g_6_26)">
<path d="M46.0013 7C39.9237 7 12.6372 28.5556 12.6372 28.5556H48.9518L63.7046 32.3333L74.826 27L113.637 28.5556C113.637 28.5556 80.8306 7 76.4147 7C71.9988 7 68.3268 14.4751 63.7046 15.4444C59.0825 16.4138 52.0788 7 46.0013 7Z" fill="var(--stroke, #FFFFFF)" stroke="var(--fill, #000000)" stroke-width="1"/>
</g>
<!-- Lower lip -->
<g filter="url(#filter1_g_6_26)">
<path d="M74.826 27L113.637 28.5556C113.637 28.5556 90.4146 49 83.2237 49H41.235C33.5181 49 12.6372 28.5556 12.6372 28.5556H48.9518L63.7046 32.3333L74.826 27Z" fill="var(--stroke, #FFFFFF)" stroke="var(--fill, #000000)" stroke-width="1"/>
</g>
</svg>
